<svg width="32" height="32" viewBox="0 0 32 32" xmlns="http://www.w3.org/2000/svg">
  <defs>
    <linearGradient id="hotelGradient" x1="0%" y1="0%" x2="0%" y2="100%">
      <stop offset="0%" style="stop-color:#3B82F6;stop-opacity:1" />
      <stop offset="100%" style="stop-color:#1D4ED8;stop-opacity:1" />
    </linearGradient>
  </defs>
  
  <!-- Bâtiment principal -->
  <rect x="6" y="8" width="20" height="20" fill="url(#hotelGradient)" rx="2"/>
  
  <!-- Toit -->
  <polygon points="4,8 16,2 28,8" fill="#DC2626"/>
  
  <!-- Fenêtres -->
  <rect x="9" y="12" width="3" height="4" fill="#FEF3C7"/>
  <rect x="13" y="12" width="3" height="4" fill="#FEF3C7"/>
  <rect x="17" y="12" width="3" height="4" fill="#FEF3C7"/>
  <rect x="21" y="12" width="3" height="4" fill="#FEF3C7"/>
  
  <rect x="9" y="18" width="3" height="4" fill="#FEF3C7"/>
  <rect x="13" y="18" width="3" height="4" fill="#FEF3C7"/>
  <rect x="17" y="18" width="3" height="4" fill="#FEF3C7"/>
  <rect x="21" y="18" width="3" height="4" fill="#FEF3C7"/>
  
  <!-- Porte -->
  <rect x="14" y="22" width="4" height="6" fill="#92400E"/>
  
  <!-- Étoile -->
  <polygon points="16,5 16.5,6.5 18,6.5 16.8,7.4 17.2,8.8 16,8 14.8,8.8 15.2,7.4 14,6.5 15.5,6.5" fill="#FBBF24"/>
</svg>