<svg width="400" height="300" xmlns="http://www.w3.org/2000/svg">
  <defs>
    <linearGradient id="skyBafoussam" x1="0%" y1="0%" x2="0%" y2="100%">
      <stop offset="0%" style="stop-color:#98FB98;stop-opacity:1" />
      <stop offset="100%" style="stop-color:#F0FFF0;stop-opacity:1" />
    </linearGradient>
  </defs>
  
  <!-- Ciel -->
  <rect width="400" height="140" fill="url(#skyBafoussam)"/>
  
  <!-- Montagnes de l'Ouest -->
  <polygon points="0,140 60,80 120,100 180,60 240,90 300,70 360,95 400,85 400,140" fill="#228B22"/>
  <polygon points="0,130 80,70 160,90 240,50 320,80 400,75 400,130" fill="#32CD32" opacity="0.8"/>
  
  <!-- Plantations de café (collines) -->
  <ellipse cx="100" cy="160" rx="40" ry="15" fill="#8FBC8F"/>
  <ellipse cx="200" cy="165" rx="50" ry="18" fill="#9ACD32"/>
  <ellipse cx="320" cy="155" rx="35" ry="12" fill="#8FBC8F"/>
  
  <!-- Bâtiments traditionnels -->
  <rect x="80" y="130" width="40" height="50" fill="#D2691E"/>
  <polygon points="75,130 100,110 125,130" fill="#8B4513"/>
  
  <rect x="150" y="125" width="50" height="55" fill="#CD853F"/>
  <polygon points="145,125 175,105 205,125" fill="#8B4513"/>
  
  <rect x="250" y="135" width="45" height="45" fill="#D2691E"/>
  <polygon points="245,135 272.5,115 300,135" fill="#8B4513"/>
  
  <!-- Cases traditionnelles -->
  <circle cx="50" cy="160" r="20" fill="#DEB887"/>
  <polygon points="40,140 50,125 60,140" fill="#8B4513"/>
  
  <circle cx="350" cy="165" r="18" fill="#DEB887"/>
  <polygon points="342,147 350,132 358,147" fill="#8B4513"/>
  
  <!-- Végétation dense -->
  <circle cx="30" cy="170" r="15" fill="#228B22"/>
  <circle cx="45" cy="175" r="12" fill="#32CD32"/>
  <circle cx="370" cy="175" r="16" fill="#228B22"/>
  <circle cx="385" cy="180" r="10" fill="#32CD32"/>
  
  <!-- Champs cultivés -->
  <rect x="120" y="180" width="160" height="20" fill="#9ACD32" opacity="0.6"/>
  <rect x="125" y="185" width="150" height="2" fill="#228B22"/>
  <rect x="125" y="190" width="150" height="2" fill="#228B22"/>
  <rect x="125" y="195" width="150" height="2" fill="#228B22"/>
  
  <!-- Arbres fruitiers -->
  <rect x="100" y="170" width="4" height="30" fill="#8B4513"/>
  <circle cx="102" cy="170" r="8" fill="#228B22"/>
  <circle cx="98" cy="165" r="3" fill="#FF6347"/>
  <circle cx="106" cy="168" r="3" fill="#FF6347"/>
  
  <rect x="280" y="175" width="4" height="25" fill="#8B4513"/>
  <circle cx="282" cy="175" r="7" fill="#228B22"/>
  <circle cx="278" cy="170" r="3" fill="#FFD700"/>
  <circle cx="286" cy="173" r="3" fill="#FFD700"/>
  
  <!-- Texte -->
  <text x="200" y="280" text-anchor="middle" font-family="Arial, sans-serif" font-size="16" font-weight="bold" fill="#000">Bafoussam - Région de l'Ouest</text>
</svg>