<svg width="400" height="300" xmlns="http://www.w3.org/2000/svg">
  <defs>
    <linearGradient id="skyYaounde" x1="0%" y1="0%" x2="0%" y2="100%">
      <stop offset="0%" style="stop-color:#87CEEB;stop-opacity:1" />
      <stop offset="100%" style="stop-color:#E0F6FF;stop-opacity:1" />
    </linearGradient>
  </defs>
  
  <!-- Ciel -->
  <rect width="400" height="150" fill="url(#skyYaounde)"/>
  
  <!-- Collines de Yaoundé -->
  <polygon points="0,150 80,100 160,120 240,80 320,110 400,90 400,150" fill="#228B22"/>
  <polygon points="0,140 100,90 200,110 300,70 400,100 400,140" fill="#32CD32" opacity="0.7"/>
  
  <!-- Bâtiments gouvernementaux -->
  <rect x="50" y="120" width="60" height="80" fill="#D4AF37"/>
  <rect x="130" y="110" width="80" height="90" fill="#B8860B"/>
  <rect x="230" y="125" width="70" height="75" fill="#DAA520"/>
  <rect x="320" y="115" width="50" height="85" fill="#D4AF37"/>
  
  <!-- Toits -->
  <polygon points="45,120 80,100 115,120" fill="#8B4513"/>
  <polygon points="125,110 170,90 215,110" fill="#8B4513"/>
  <polygon points="225,125 265,105 305,125" fill="#8B4513"/>
  <polygon points="315,115 345,95 375,115" fill="#8B4513"/>
  
  <!-- Fenêtres -->
  <rect x="60" y="140" width="8" height="12" fill="#4169E1"/>
  <rect x="75" y="140" width="8" height="12" fill="#4169E1"/>
  <rect x="90" y="140" width="8" height="12" fill="#4169E1"/>
  
  <rect x="145" y="130" width="10" height="15" fill="#4169E1"/>
  <rect x="165" y="130" width="10" height="15" fill="#4169E1"/>
  <rect x="185" y="130" width="10" height="15" fill="#4169E1"/>
  
  <!-- Végétation urbaine -->
  <circle cx="30" cy="180" r="20" fill="#228B22"/>
  <circle cx="380" cy="170" r="15" fill="#228B22"/>
  <circle cx="200" cy="190" r="25" fill="#228B22"/>
  
  <!-- Routes -->
  <rect x="0" y="200" width="400" height="15" fill="#696969"/>
  <rect x="0" y="205" width="400" height="3" fill="#FFFF00" opacity="0.8"/>
  
  <!-- Texte -->
  <text x="200" y="280" text-anchor="middle" font-family="Arial, sans-serif" font-size="18" font-weight="bold" fill="#000">Yaoundé - Capitale</text>
</svg>