<svg xmlns="http://www.w3.org/2000/svg" viewBox="0 0 800 600" fill="none">
  <rect width="800" height="600" fill="#F2F0E9"/>
  <path d="M0 440 177 302l110 83 151-143 196 167 166-105v296H0V440Z" fill="#E2E8E1"/>
  <rect x="267" y="174" width="266" height="280" rx="12" fill="#174C3A"/>
  <rect x="293" y="204" width="214" height="40" rx="6" fill="#F5F1E8"/>
  <path d="M400 204v40" stroke="#C9D3CA" stroke-width="4"/>
  <g fill="#F5F1E8">
    <rect x="294" y="270" width="48" height="48" rx="5"/>
    <rect x="376" y="270" width="48" height="48" rx="5"/>
    <rect x="458" y="270" width="48" height="48" rx="5"/>
    <rect x="294" y="348" width="48" height="48" rx="5"/>
    <rect x="458" y="348" width="48" height="48" rx="5"/>
    <path d="M376 454v-58a24 24 0 0 1 48 0v58h-48Z"/>
  </g>
  <path d="M245 455h310" stroke="#103B2D" stroke-width="12" stroke-linecap="round"/>
  <text x="400" y="520" fill="#59645D" font-family="Arial,sans-serif" font-size="22" text-anchor="middle">Photo de l’établissement à venir</text>
</svg>
